#!OML:ASF \\sashay\E\Suitcase\Project 1\Capture day 1\Session 1\Male1.ASF
:FULLY-SPECIFIED
:DEGREES
1390
root -2.11053 17.5954 10.1309 7.40624 12.5517 -0.892799
lowerback 0.305673 -1.18114 3.56641
upperback 1.16338 -1.60905 4.03019
thorax 1.0418 -0.787654 2.13095
lowerneck -6.52385 -4.1987 -7.04248
upperneck 36.6013 -2.91033 -4.79237
head 13.5674 -2.74003 -1.03103
rclavicle 3.61788e-014 -9.54166e-015
rhumerus -15.6836 -29.1556 -67.6431
rradius 11.4913
rwrist -1.64979
rhand -13.0284 16.0545
rfingers 7.12502
rthumb 13.0658 -13.5163
lclavicle 3.61788e-014 -9.54166e-015
lhumerus -33.9563 -7.4311 92.2853
lradius 36.4904
lwrist -4.26855
lhand 1.42845 44.8047
lfingers 7.12502
lthumb 26.9579 72.9016
rfemur -6.16779 -5.17519 28.0058
rtibia 12.7571
rfoot -13.4666 -17.239
rtoes 16.5829
lfemur -9.68128 -5.82886 -11.6018
ltibia 16.243
lfoot -12.7628 -0.291474
ltoes -1.28646
1391
root -2.1156 17.5987 10.1493 7.47427 12.4803 -0.752007
lowerback 0.336722 -1.14489 3.38983
upperback 1.11324 -1.55593 4.04126
thorax 0.977037 -0.763646 2.24247
lowerneck -6.35693 -4.21934 -7.08481
upperneck 36.6335 -2.94961 -4.78188
head 13.548 -2.76001 -1.02112
rclavicle -6.59965e-014 1.11319e-014
rhumerus -16.0824 -29.3279 -67.3531
rradius 11.3011
rwrist -1.50627
rhand -13.1905 16.6057
rfingers 7.12502
rthumb 12.9096 -12.975
lclavicle -6.59965e-014 1.11319e-014
lhumerus -34.089 -7.60922 92.3678
lradius 36.5441
lwrist -4.43855
lhand 0.947812 44.6769
lfingers 7.12502
lthumb 26.4979 72.844
rfemur -6.07793 -4.94334 27.8731
rtibia 12.6079
rfoot -13.5264 -17.4062
rtoes 16.5999
lfemur -9.68246 -5.78502 -11.7312
ltibia 16.2787
lfoot -12.8055 -0.321812
ltoes -1.0811
1392
root -2.11205 17.5991 10.1502 7.40966 12.389 -1.04556
lowerback 0.491175 -1.14165 3.74047
upperback 1.16629 -1.54486 4.1301
thorax 0.938408 -0.755173 2.14118
lowerneck -6.3959 -4.20314 -6.95863
upperneck 36.6386 -2.9266 -4.84905
head 13.5521 -2.74194 -1.06761
rclavicle 1.31198e-014 1.59028e-015
rhumerus -16.3215 -30.4615 -67.1145
rradius 11.261
rwrist -0.24166
rhand -12.8824 15.6084
rfingers 7.12502
rthumb 13.2066 -13.9533
lclavicle 1.31198e-014 1.59028e-015
lhumerus -34.1092 -8.08841 92.5162
lradius 36.6178
lwrist -3.75907
lhand 0.726595 44.8536
lfingers 7.12502
lthumb 26.2861 73.0525
rfemur -6.03222 -4.83477 28.1696
rtibia 12.5373
rfoot -13.5336 -17.4029
rtoes 16.6394
lfemur -9.65163 -5.54861 -11.4262
ltibia 16.2511
lfoot -12.7763 -0.473533
ltoes -1.01372
1393
root -2.1091 17.6013 10.1683 7.4789 12.3632 -0.741353
lowerback 0.423585 -1.17872 3.46512
upperback 1.18611 -1.59963 4.06347
thorax 1.00254 -0.784431 2.22429
lowerneck -6.26161 -4.17196 -6.8594
upperneck 36.6855 -2.90451 -4.87455
head 13.5391 -2.72206 -1.08961
rclavicle -3.27995e-014 -9.54166e-015
rhumerus -16.8955 -31.2839 -66.7768
rradius 11.1322
rwrist 0.735127
rhand -12.9855 16.1718
rfingers 7.12502
rthumb 13.1071 -13.3963
lclavicle -3.27995e-014 -9.54166e-015
lhumerus -34.3771 -7.85101 92.4802
lradius 36.9384
lwrist -3.80138
lhand 0.421388 44.6561
lfingers 7.12502
lthumb 25.9939 72.8982
rfemur -5.95409 -4.82942 27.8287
rtibia 12.5241
rfoot -13.657 -17.4136
rtoes 16.7331
lfemur -9.55688 -5.66118 -11.7719
ltibia 16.208
lfoot -12.7956 -0.381776
ltoes -1.08473
1394
root -2.11239 17.6051 10.1758 7.64508 12.238 -0.510804
lowerback 0.297794 -1.05344 3.20684
upperback 1.32549 -1.44799 4.11235
thorax 1.22194 -0.709759 2.41612
lowerneck -6.58415 -4.2761 -7.12662
upperneck 36.8167 -3.00961 -4.73277
head 13.6843 -2.78882 -1.01485
rclavicle 3.45885e-014 5.725e-014
rhumerus -17.0148 -30.8575 -66.6791
rradius 11.3684
rwrist -0.151074
rhand -12.8805 15.7592
rfingers 7.12502
rthumb 13.2084 -13.8024
lclavicle 3.45885e-014 5.725e-014
lhumerus -33.9871 -8.20143 92.8004
lradius 36.7715
lwrist -3.72111
lhand 0.757756 44.8403
lfingers 7.12502
lthumb 26.316 73.0347
rfemur -6.1191 -4.50681 27.5954
rtibia 12.6376
rfoot -13.7936 -17.6108
rtoes 16.9
lfemur -9.62914 -5.57725 -12.013
ltibia 16.1578
lfoot -12.7525 -0.364459
ltoes -1.23755
1395
root -2.10819 17.6031 10.1813 7.72577 12.1808 -0.516323
lowerback 0.214905 -1.0997 3.22603
upperback 1.4311 -1.5209 4.15695
thorax 1.37941 -0.744987 2.44838
lowerneck -6.75524 -4.2273 -7.09128
upperneck 36.8864 -2.92426 -4.7422
head 13.7513 -2.75134 -1.02065
rclavicle -1.92821e-014 -3.02153e-014
rhumerus -17.2573 -30.6493 -66.7145
rradius 11.4838
rwrist 0.00169933
rhand -12.9332 15.5225
rfingers 7.12502
rthumb 13.1575 -14.0424
lclavicle -1.92821e-014 -3.02153e-014
lhumerus -33.8524 -8.05013 92.7534
lradius 36.9731
lwrist -3.80356
lhand 0.928172 44.8063
lfingers 7.12502
lthumb 26.4791 72.9763
rfemur -6.28506 -4.60456 27.5903
rtibia 12.8133
rfoot -13.8722 -17.4594
rtoes 16.8427
lfemur -9.59288 -5.5954 -12.0174
ltibia 15.9933
lfoot -12.6721 -0.280327
ltoes -1.54594
1396
root -2.10805 17.6014 10.1889 7.8712 12.0571 -0.303957
lowerback 0.0168051 -1.12802 2.95318
upperback 1.5598 -1.57605 4.15244
thorax 1.63126 -0.77464 2.59075
lowerneck -6.85784 -4.17999 -7.06745
upperneck 36.9031 -2.85283 -4.73668
head 13.7799 -2.71787 -1.01637
rclavicle -1.86858e-014 -1.11319e-014
rhumerus -17.3631 -31.6121 -66.4682
rradius 11.0893
rwrist 1.00559
rhand -12.8747 16.2717
rfingers 7.12502
rthumb 13.214 -13.2895
lclavicle -1.86858e-014 -1.11319e-014
lhumerus -33.6928 -7.84939 92.6699
lradius 37.0169
lwrist -3.89682
lhand 1.01079 44.8418
lfingers 7.12502
lthumb 26.5582 72.9998
rfemur -6.4764 -4.38896 27.368
rtibia 12.9979
rfoot -14.003 -17.5611
rtoes 16.9108
lfemur -9.60518 -5.50013 -12.2495
ltibia 15.8765
lfoot -12.6183 -0.261058
ltoes -1.9916
